<svg width="6972" height="1366" viewBox="0 0 6972 1366" fill="none" xmlns="http://www.w3.org/2000/svg">
<path d="M5641.4 1022.49C5597.1 1022.49 5560.79 1015.52 5532.69 1001.57C5504.49 987.415 5483.46 968.646 5469.51 945.365C5455.77 921.878 5449 895.93 5449 867.418C5449 819.83 5467.56 781.267 5504.79 751.729C5541.92 722.192 5597.71 707.423 5672.17 707.423H5802.63V694.705C5802.63 659.732 5792.58 633.989 5772.68 617.579C5752.68 600.964 5727.76 592.554 5698.02 592.554C5671.15 592.554 5647.76 599.016 5627.87 611.836C5607.87 624.451 5595.46 643.22 5590.53 668.039H5461.31C5464.79 630.912 5477.41 598.503 5499.05 570.811C5520.9 543.223 5549.1 521.992 5583.56 507.224C5618.02 492.455 5656.58 485.07 5699.25 485.07C5772.27 485.07 5829.71 503.429 5871.55 540.043C5913.6 576.452 5934.73 628.041 5934.73 694.705V1010.18H5822.32L5809.61 927.314C5794.53 955.006 5773.3 977.774 5746.02 995.825C5718.94 1013.57 5684.07 1022.49 5641.4 1022.49ZM5671.35 919.109C5709.1 919.109 5738.43 906.802 5759.56 882.187C5780.58 857.367 5793.81 826.599 5799.35 789.882H5686.94C5651.66 789.882 5626.33 796.343 5611.05 809.164C5595.97 821.779 5588.48 837.47 5588.48 856.342C5588.48 876.341 5595.97 891.828 5611.05 902.699C5626.33 913.673 5646.43 919.109 5671.35 919.109Z" fill="white"/>
<path d="M6102.47 1237.46V497.378H6220.21L6234.57 570.811C6251.18 548.145 6273.13 528.146 6300.21 510.916C6327.49 493.685 6362.97 485.07 6406.46 485.07C6454.56 485.07 6497.53 496.865 6535.28 520.351C6573.22 543.633 6603.38 575.632 6625.53 616.349C6647.68 657.168 6658.76 703.32 6658.76 755.011C6658.76 806.702 6647.68 852.65 6625.53 892.854C6603.38 933.058 6573.22 964.852 6535.28 988.03C6497.53 1011 6454.56 1022.49 6406.46 1022.49C6367.9 1022.49 6334.05 1015.21 6305.13 1000.75C6276.1 986.287 6252.62 966.082 6234.57 940.032V1237.46H6102.47ZM6378.56 906.802C6420.41 906.802 6455.07 892.751 6482.77 864.547C6510.35 836.137 6524.2 799.625 6524.2 755.011C6524.2 710.192 6510.35 673.27 6482.77 644.245C6455.07 615.323 6420.41 600.759 6378.56 600.759C6335.59 600.759 6300.41 615.118 6273.13 643.835C6246.05 672.347 6232.52 708.961 6232.52 753.781C6232.52 798.702 6246.05 835.419 6273.13 864.136C6300.41 892.648 6335.59 906.802 6378.56 906.802Z" fill="white"/>
<path d="M6889.27 417.791C6864.86 417.791 6844.96 410.611 6829.37 396.048C6813.99 381.586 6806.4 363.433 6806.4 341.485C6806.4 319.332 6813.99 301.281 6829.37 287.333C6844.96 273.179 6864.86 266 6889.27 266C6913.27 266 6932.96 273.179 6948.34 287.333C6963.93 301.281 6971.73 319.332 6971.73 341.485C6971.73 363.433 6963.93 381.586 6948.34 396.048C6932.96 410.611 6913.27 417.791 6889.27 417.791ZM6822.81 1010.18V497.378H6955.32V1010.18H6822.81Z" fill="white"/>
<mask id="mask0_1167_1284" style="mask-type:luminance" maskUnits="userSpaceOnUse" x="1304" y="0" width="4018" height="1366">
<path d="M5321.84 0H1304.71V1365.3H5321.84V0Z" fill="white"/>
</mask>
<g mask="url(#mask0_1167_1284)">
<path d="M1394.73 1017.16V504.354H1473.5L1479.66 578.609C1496.07 551.02 1518.01 529.687 1545.7 514.61C1573.29 499.329 1604.37 491.637 1638.83 491.637C1679.55 491.637 1714.52 500.047 1743.85 516.662C1773.08 533.072 1795.65 558.302 1811.54 592.147C1829.29 560.968 1853.9 536.559 1885.39 518.713C1916.77 500.662 1950.72 491.637 1987.13 491.637C2048.67 491.637 2097.59 510.098 2134 547.02C2170.61 583.942 2188.97 640.761 2188.97 717.272V1017.16H2103.23V726.708C2103.23 673.376 2092.56 633.377 2071.23 606.506C2049.9 579.737 2019.13 566.301 1978.92 566.301C1937.59 566.301 1903.23 582.301 1875.95 614.3C1848.88 646.299 1835.34 692.042 1835.34 751.322V1017.16H1748.37V726.708C1748.37 673.376 1737.7 633.377 1716.37 606.506C1695.03 579.737 1664.37 566.301 1624.47 566.301C1583.65 566.301 1549.6 582.301 1522.32 614.3C1495.24 646.299 1481.71 692.042 1481.71 751.322V1017.16H1394.73Z" fill="white"/>
<path d="M2592.01 1029.47C2542.99 1029.47 2499.5 1018.19 2461.55 995.829C2423.81 973.47 2393.97 942.292 2372.12 902.293C2350.48 862.396 2339.71 815.218 2339.71 760.758C2339.71 706.913 2350.38 659.837 2371.71 619.633C2393.04 579.224 2422.79 547.738 2461.14 525.277C2499.4 502.918 2543.71 491.637 2594.06 491.637C2643.81 491.637 2686.78 502.918 2722.88 525.277C2758.98 547.738 2786.67 577.276 2806.16 613.89C2825.54 650.299 2835.29 689.58 2835.29 731.63C2835.29 739.323 2834.98 747.015 2834.47 754.604C2834.16 761.989 2834.06 770.604 2834.06 780.45H2425.45C2427.61 819.628 2436.73 852.14 2452.94 878.088C2469.04 903.831 2489.25 923.215 2513.66 936.343C2538.27 949.471 2564.32 956.035 2592.01 956.035C2627.81 956.035 2657.75 947.83 2681.86 931.42C2706.16 914.805 2723.8 892.344 2734.78 864.14H2820.52C2806.78 911.728 2780.42 951.317 2741.34 982.701C2702.47 1013.88 2652.73 1029.47 2592.01 1029.47ZM2592.01 565.071C2550.68 565.071 2513.86 577.686 2481.66 602.813C2449.66 628.043 2431.3 664.76 2426.68 713.169H2749.14C2747.19 667.017 2731.29 630.71 2701.55 604.454C2672.01 578.199 2635.5 565.071 2592.01 565.071Z" fill="white"/>
<path d="M2991.12 1017.16V504.354H3069.89L3076.86 602.403C3092.65 568.763 3116.76 541.994 3149.06 521.995C3181.57 501.79 3221.68 491.637 3269.26 491.637V582.711H3245.47C3215.11 582.711 3187.22 588.044 3161.78 598.711C3136.35 609.377 3115.94 627.633 3100.65 653.274C3085.58 678.709 3078.09 713.887 3078.09 758.707V1017.16H2991.12Z" fill="white"/>
<path d="M3643.69 1029.47C3594.66 1029.47 3550.66 1018.19 3511.59 995.829C3472.72 973.47 3442.05 942.087 3419.69 901.882C3397.23 861.473 3386.05 814.398 3386.05 760.758C3386.05 706.913 3397.23 659.837 3419.69 619.633C3442.05 579.224 3472.72 547.738 3511.59 525.277C3550.66 502.918 3594.66 491.637 3643.69 491.637C3704.4 491.637 3755.48 507.534 3797.12 539.225C3838.96 571.019 3865.32 613.377 3876.3 666.401H3787.27C3780.4 634.71 3763.48 610.095 3736.4 592.557C3709.53 575.122 3678.25 566.301 3642.46 566.301C3613.43 566.301 3586.25 573.583 3560.82 588.044C3535.38 602.608 3514.66 624.351 3498.87 653.274C3482.97 681.991 3475.08 717.887 3475.08 760.758C3475.08 803.423 3482.97 839.32 3498.87 868.242C3514.66 897.267 3535.38 919.113 3560.82 933.882C3586.25 948.65 3613.43 956.035 3642.46 956.035C3678.25 956.035 3709.53 947.317 3736.4 929.779C3763.48 912.344 3780.4 887.319 3787.27 854.704H3876.3C3865.83 906.395 3839.58 948.548 3797.53 981.06C3755.68 1013.37 3704.4 1029.47 3643.69 1029.47Z" fill="white"/>
<path d="M4225.56 1029.47C4164.85 1029.47 4116.54 1011.22 4080.75 974.499C4044.85 937.577 4027.01 880.86 4027.01 804.247V504.357H4113.98V794.811C4113.98 901.783 4157.67 955.217 4245.26 955.217C4290.08 955.217 4327.1 939.218 4356.43 907.219C4385.66 875.014 4400.33 829.169 4400.33 769.786V504.357H4487.3V1017.16H4408.53L4402.38 925.27C4386.48 957.576 4362.79 983.012 4331.41 1001.58C4300.23 1020.14 4264.95 1029.47 4225.56 1029.47Z" fill="white"/>
<path d="M4671.26 1017.16V504.354H4750.03L4757 602.403C4772.79 568.763 4796.9 541.994 4829.2 521.995C4861.72 501.79 4901.82 491.637 4949.41 491.637V582.711H4925.61C4895.25 582.711 4867.36 588.044 4841.92 598.711C4816.49 609.377 4796.08 627.633 4780.79 653.274C4765.72 678.709 4758.23 713.887 4758.23 758.707V1017.16H4671.26Z" fill="white"/>
<path d="M5140.86 390.307C5123.32 390.307 5108.86 384.769 5097.37 373.487C5086.09 362 5080.55 347.641 5080.55 330.411C5080.55 314.001 5086.09 300.361 5097.37 289.386C5108.86 278.207 5123.32 272.566 5140.86 272.566C5157.27 272.566 5171.32 278.207 5183.11 289.386C5194.8 300.361 5200.75 314.001 5200.75 330.411C5200.75 347.641 5194.8 362 5183.11 373.487C5171.32 384.769 5157.27 390.307 5140.86 390.307ZM5097.37 1017.16V504.355H5183.93V1017.16H5097.37Z" fill="white"/>
</g>
<mask id="mask1_1167_1284" style="mask-type:alpha" maskUnits="userSpaceOnUse" x="0" y="276" width="961" height="961">
<circle cx="480.5" cy="756.5" r="480.5" fill="white"/>
</mask>
<g mask="url(#mask1_1167_1284)">
<rect x="-261" y="71" width="1548" height="766" fill="white"/>
</g>
<mask id="mask2_1167_1284" style="mask-type:alpha" maskUnits="userSpaceOnUse" x="0" y="276" width="961" height="961">
<circle cx="480.5" cy="756.5" r="480.5" fill="white"/>
</mask>
<g mask="url(#mask2_1167_1284)">
<rect x="-237" y="837" width="1506" height="688" fill="#D9D9D9" fill-opacity="0.94"/>
</g>
</svg>
