<svg width="1280" height="324" viewBox="0 0 1280 324" fill="none" xmlns="http://www.w3.org/2000/svg">
<path d="M447.23 323.58C422.01 323.58 397.69 314.36 383.36 290.04H375.04V316.66H317.7V0H375.04V115.2H383.36C398.08 89.98 425.6 80.26 450.43 80.26C512.38 80.26 554.24 129.8 554.24 199.56C554.24 269.32 508.29 323.46 447.23 323.46V323.59V323.58ZM434.82 272.26C470.15 272.26 495.36 243.33 495.36 201.99C495.36 160.65 469.63 131.72 434.82 131.72C400.01 131.72 375.17 159.24 375.17 201.99C375.17 244.74 400.39 272.26 434.82 272.26ZM660.22 323.58C616.19 323.58 580.35 296.96 580.35 253.31C580.35 209.66 619.77 185.34 667.52 180.35L734.98 173.44V160.64C734.98 140.93 718.85 127.1 690.44 127.1C662.03 127.1 647.69 139 642.7 156.92H587.66C593.16 113.27 629.39 80.25 690.44 80.25C751.49 80.25 788.23 108.67 788.23 164.22V276.22C788.23 290.43 789.64 310.14 790.53 315.64V316.54H735.49C734.98 308.73 734.98 301.44 734.98 293.63H726.66C712.45 316.54 687.62 323.45 660.1 323.45L660.23 323.58H660.22ZM675.84 280.45C713.47 280.45 735.1 252.03 735.1 223.11V211.59L684.54 217.61C653.31 221.32 638.2 230.41 638.2 250.63C638.2 270.85 653.82 280.45 675.83 280.45H675.84ZM926.08 323.58C868.22 323.58 826.88 294.65 820.48 249.21H876.93C883.33 269.43 904.45 278.14 926.47 278.14C948.49 278.14 967.3 268.54 967.3 251.52C967.3 234.5 949.89 229.89 925.96 225.79L901.64 221.69C855.69 213.88 827.27 194.55 827.27 153.34C827.27 112.13 866.69 80.38 921.35 80.38C976.01 80.38 1009.93 105.21 1019.53 148.35H964.49C958.09 131.33 941.07 124.54 921.74 124.54C902.41 124.54 883.21 134.65 883.21 148.86C883.21 163.07 895.11 168.19 919.95 172.28L944.27 176.38C988.81 183.68 1022.73 202.11 1022.73 246.65C1022.73 291.19 982.28 323.83 925.83 323.83L926.09 323.57L926.08 323.58ZM1166.59 323.58C1095.93 323.58 1049.09 275.32 1049.09 201.47C1049.09 127.62 1098.63 80.25 1167.11 80.25C1235.59 80.25 1280.01 133.5 1280.01 203.77V213.88H1105.16C1107.98 252.02 1134.6 274.42 1166.73 274.42C1198.86 274.42 1209.48 265.2 1217.29 249.2H1276.04C1264.14 292.34 1221.38 323.57 1166.73 323.57H1166.6L1166.59 323.58ZM1223.94 175.87C1219.33 145.15 1195.01 127.23 1166.6 127.23C1138.19 127.23 1111.56 144.64 1106.06 175.87H1224.08H1223.95H1223.94Z" fill="#91A2C1"/>
<path d="M13.82 316.8C4.6 316.8 0 312.19 0 302.98V100.99C0 91.7699 4.61 87.1699 13.82 87.1699H215.8C225.02 87.1699 229.62 91.7799 229.62 100.99V302.97C229.62 312.19 225.01 316.79 215.8 316.79H13.82V316.8Z" fill="#91A2C1"/>
</svg>
