<svg width="1992" height="297" viewBox="0 0 1992 297" fill="none" xmlns="http://www.w3.org/2000/svg">
<path d="M330.158 234.03L275.37 292.776C272.975 295.357 269.615 296.822 266.096 296.827H6.36555C2.84635 296.827 -0.00442152 293.972 5.14831e-06 290.452C5.14831e-06 288.85 0.606456 287.305 1.69542 286.127L56.4223 227.381C58.8171 224.8 62.177 223.335 65.6962 223.331H325.422C328.923 223.26 331.818 226.035 331.889 229.537C331.929 231.206 331.305 232.822 330.158 234.03ZM275.37 115.701C272.966 113.133 269.611 111.668 266.096 111.65H6.36555C2.84635 111.65 -0.00442152 114.506 5.14831e-06 118.025C5.14831e-06 119.627 0.606456 121.172 1.69542 122.35L56.4223 181.127C58.826 183.694 62.1814 185.16 65.6962 185.177H325.422C328.941 185.16 331.774 182.291 331.757 178.772C331.748 177.178 331.141 175.647 330.061 174.478L275.37 115.701ZM6.36555 73.497H266.091C269.611 73.4925 272.97 72.0273 275.365 69.4465L330.154 10.7002C332.562 8.1549 332.451 4.13991 329.906 1.7318C329.614 1.45735 329.295 1.20949 328.959 0.992582C327.905 0.319729 326.675 -0.0211203 325.426 0.00101309H65.7006C62.1814 0.00543976 58.8216 1.47064 56.4267 4.05138L1.69985 62.7977C-0.690551 65.3784 -0.535622 69.4067 2.04512 71.7971C3.21819 72.8905 4.7631 73.497 6.36555 73.497Z" fill="#91A2C1"/>
<path d="M646.806 125.533H507.853V79.7705H682.919V34.0076H507.389C482.17 33.8659 461.612 54.1976 461.471 79.4163V79.4296V125.808C461.568 151.027 482.095 171.389 507.313 171.292C507.34 171.292 507.362 171.292 507.389 171.292H646.527V217.055H464.782V262.818H646.806C665.279 262.919 681.994 251.884 689.152 234.854C691.476 229.325 692.693 223.394 692.724 217.396V171.017C692.622 145.799 672.096 125.432 646.877 125.533C646.851 125.533 646.828 125.533 646.806 125.533ZM915.992 34.012H776.512C758.009 33.8659 741.245 44.8972 734.056 61.9487C731.723 67.4864 730.506 73.4271 730.47 79.4341V217.4C730.501 223.407 731.719 229.352 734.056 234.89C741.24 251.941 758.009 262.973 776.512 262.822H915.992C941.211 262.964 961.768 242.632 961.91 217.413V217.4V79.4341C961.848 67.3227 956.97 55.7293 948.36 47.2168C939.75 38.6955 928.103 33.9456 915.992 34.012ZM915.651 217.059H776.853V79.7749H915.589L915.651 217.059ZM1404.52 34.012H1268.48C1243.26 33.8704 1222.7 54.202 1222.56 79.4208V79.4341V262.818H1268.94V187.653H1404.37V262.818H1450.75V79.4341C1450.62 54.2198 1430.07 33.8837 1404.86 34.012C1404.75 34.012 1404.64 34.012 1404.52 34.012ZM1404.18 141.89H1268.75V79.7705H1404.18V141.89ZM1946.08 34.012H1810.04C1784.82 33.8704 1764.26 54.202 1764.12 79.4208V79.4341V262.818H1810.5V187.653H1945.62V262.818H1992V79.4341C1991.94 67.3227 1987.06 55.7293 1978.45 47.2168C1969.84 38.6955 1958.2 33.9501 1946.08 34.012ZM1945.62 141.89H1810.19V79.7705H1945.62V141.89ZM1676.62 217.059H1658.07L1591.74 53.1839C1587.09 41.617 1575.88 34.0297 1563.42 34.012H1522.26C1509.94 33.9456 1498.8 41.3116 1494.03 52.6704C1492.48 56.3578 1491.68 60.3109 1491.65 64.3126V262.818H1538.03V79.7749H1556.58L1622.88 243.65C1627.6 255.195 1638.85 262.725 1651.32 262.698H1692.48C1700.56 262.742 1708.32 259.573 1714.06 253.885C1719.8 248.201 1723.04 240.472 1723.09 232.398V34.0164H1676.62V217.059ZM1049.26 34.012H1002.88V217.396C1002.94 229.534 1007.84 241.149 1016.48 249.67C1025.13 258.192 1036.81 262.924 1048.95 262.818H1188.09V217.055H1049.26V34.012Z" fill="#91A2C1"/>
</svg>
